<?xml version="1.0" standalone="no"?>
<!DOCTYPE svg PUBLIC "-//W3C//DTD SVG 20010904//EN"
 "http://www.w3.org/TR/2001/REC-SVG-20010904/DTD/svg10.dtd">
<svg version="1.0" xmlns="http://www.w3.org/2000/svg"
 width="300.000000pt" height="239.000000pt" viewBox="0 0 300.000000 239.000000"
 preserveAspectRatio="xMidYMid meet">
<metadata>
Created by potrace 1.10, written by Peter Selinger 2001-2011
</metadata>
<g transform="translate(0.000000,239.000000) scale(0.100000,-0.100000)"
fill="#000000" stroke="none">
<path d="M882 1768 c-11 -18 -88 -156 -172 -305 l-152 -273 170 -302 170 -303
206 -3 c113 -1 206 0 206 3 0 3 -11 22 -24 43 -30 47 -303 532 -311 553 -5 13
74 158 307 567 l29 52 -204 0 -205 0 -20 -32z m343 -18 c4 -6 -58 -126 -138
-268 -79 -141 -147 -266 -151 -278 -7 -24 4 -45 176 -351 66 -117 117 -217
113 -223 -4 -6 -59 -10 -144 -10 -118 0 -142 3 -159 18 -23 19 -312 531 -312
552 0 15 285 526 308 553 13 15 34 17 158 17 88 0 145 -4 149 -10z"/>
<path d="M1292 1495 l-170 -305 171 -305 171 -305 208 0 208 0 -14 22 c-8 13
-87 150 -175 306 l-159 283 165 292 c91 161 170 298 175 305 8 9 -33 12 -199
12 l-210 0 -171 -305z m498 249 c0 -9 -66 -133 -146 -276 -121 -214 -145 -265
-140 -288 3 -16 70 -145 150 -286 80 -142 143 -261 140 -266 -9 -14 -288 -10
-306 5 -14 10 -239 402 -298 518 -24 46 -41 8 147 344 74 132 142 246 151 253
11 8 60 12 159 12 126 0 143 -2 143 -16z"/>
<path d="M2008 1768 c-8 -18 -84 -154 -167 -303 -91 -162 -149 -275 -146 -285
10 -26 318 -574 330 -588 8 -9 59 -12 212 -10 l201 3 -169 299 c-93 164 -169
302 -169 306 0 7 272 495 322 578 l20 32 -209 0 -209 0 -16 -32z m347 -18 c3
-5 -60 -127 -141 -271 -92 -164 -147 -272 -147 -289 0 -18 54 -125 147 -289
81 -144 144 -266 141 -271 -4 -6 -65 -10 -146 -10 -132 0 -141 1 -162 22 -27
28 -307 529 -307 550 0 16 283 523 307 551 14 15 36 17 159 17 83 0 145 -4
149 -10z"/>
</g>
</svg>
